<svg width="377" height="121" fill="none" xmlns="http://www.w3.org/2000/svg"><g clip-path="url(#clip0_1754_12158)" fill="#DDF0F1"><path d="M25.048 7.08c-.158 0-.317-.04-.467-.111A44.607 44.607 0 0013.156 2.9c-3.017-.624-8.052-1.667-9.358.166-.198.284-.317.648-.349 1.074-.04.561-.53.98-1.084.949a1.018 1.018 0 01-.95-1.083c.055-.814.3-1.525.72-2.117C4.209-1.027 9.617.095 13.568.909c4.085.845 8.1 2.275 11.947 4.259.499.26.697.869.436 1.366a1.027 1.027 0 01-.903.553V7.08z"/><path d="M7.543 20.787c-.325 0-.642-.15-.84-.434a60.166 60.166 0 01-3.127-4.986c-.412-.735-.982-1.746-1.631-3.152A41.94 41.94 0 01.362 8.288a.8.8 0 01-.048-.197c-.008-.08-.032-.198-.055-.348-.31-1.754-.53-3.531.49-4.298.293-.221.927-.521 1.861-.055.507.245.713.861.467 1.359a1.024 1.024 0 01-1.037.56c-.008.356.04.988.23 2.079.023.126.04.237.055.324a38.077 38.077 0 001.473 3.642c.617 1.335 1.164 2.299 1.56 3.01a61.041 61.041 0 003.024 4.82 1.013 1.013 0 01-.831 1.595l-.008.008z"/><path d="M52.822 45.753c-.23 0-.459-.079-.65-.237a22.01 22.01 0 00-5.137-3.192c-1.315-.577-2.597-.924-4.379-1.406-.594-.166-1.243-.34-1.963-.545l-2.55-.72c-2.09-.592-2.652-.75-3.602-1.074a50.23 50.23 0 01-6.08-2.528c-6.2-3.073-12.542-7.719-12.811-7.916a97.2 97.2 0 01-8.313-6.93 1.012 1.012 0 01-.048-1.437 1.017 1.017 0 011.441-.047 95.665 95.665 0 008.131 6.778c.064.048 6.477 4.733 12.51 7.727a49.122 49.122 0 005.827 2.425c.895.3 1.394.443 3.492 1.035l2.549.72c.713.205 1.354.379 1.948.537 1.86.505 3.198.877 4.655 1.509 1.98.86 3.872 2.038 5.622 3.484.435.355.49.995.134 1.43-.198.245-.49.371-.784.371l.008.016zm30.466 5.617c-.253 0-.499-.094-.697-.276a21.178 21.178 0 00-1.638-1.39c-1.877-1.439-3.674-2.3-6.144-3.303-5.036-2.039-10.467-3.713-12.557-4.203a17.974 17.974 0 01-4.553-1.723.848.848 0 01-.174-.118 17.512 17.512 0 01-1.243-1.185 15.797 15.797 0 01-1.766-2.236l-.07-.103a164.532 164.532 0 00-8.528-11.274c-2.755-3.326-4.916-5.95-8.107-8.975A72.499 72.499 0 0026.742 7.98a1.02 1.02 0 111.093-1.722 74.372 74.372 0 0111.385 8.848c3.278 3.113 5.487 5.776 8.274 9.15a163.748 163.748 0 018.638 11.424l.087.126c.221.332.744 1.106 1.551 1.967.317.34.658.664 1.006.964.673.364 1.385.68 2.106.94.879.316 1.552.474 1.813.538 2.597.608 8.242 2.417 12.89 4.305 2.628 1.067 4.552 1.991 6.619 3.572.625.482 1.227.995 1.797 1.524.411.388.427 1.028.04 1.438a1.001 1.001 0 01-.745.316h-.008zM65.03 69.747a1.02 1.02 0 01-.902-.545l-5.74-10.847a93.696 93.696 0 01-2.66-6.305 82.712 82.712 0 01-1.67-4.827 1.012 1.012 0 01.664-1.272 1.015 1.015 0 011.275.663 90.174 90.174 0 004.22 10.84l5.716 10.8a1.017 1.017 0 01-.902 1.493z"/><path d="M65.023 69.747c-.546 0-.998-.434-1.022-.987-.102-3.184.31-6.281 1.22-9.212.768-2.458 1.37-4.401 3.159-6.155 2.019-1.991 4.33-2.544 7.26-3.247l.253-.063a27.72 27.72 0 017.427-.743c.562.016 1.006.49.982 1.05a.997.997 0 01-1.053.98 25.613 25.613 0 00-6.88.688l-.254.063c-2.723.656-4.687 1.13-6.31 2.726-1.425 1.398-1.908 2.954-2.637 5.309-.847 2.71-1.227 5.586-1.124 8.54a1.018 1.018 0 01-.99 1.051h-.031zM21.928 22.644c-1.338 0-3.246-.182-5.193-1.399-2.423-1.509-3.5-3.697-3.927-4.866a1.02 1.02 0 011.916-.695c.34.924 1.187 2.654 3.095 3.839 1.9 1.185 3.722 1.114 4.925 1.067.174 0 .317-.016.436-.032-.357-.434-1.046-1.082-2.075-1.936a26.008 26.008 0 00-5.827-3.618 1.013 1.013 0 01-.499-1.351c.23-.514.84-.735 1.354-.498 2.312 1.059 4.426 2.37 6.279 3.903 1.987 1.643 3.578 3.12 2.929 4.52-.396.852-1.489 1.003-2.518 1.042-.253.008-.554.024-.887.024h-.008z"/><path d="M8.105 17.153H7.97a1.023 1.023 0 01-1.013-1.027c0-.561.459-1.012 1.021-1.012h.127c1.995 0 3.903-.41 5.669-1.232a13.65 13.65 0 002.684-1.66 1.013 1.013 0 011.433.159 1.015 1.015 0 01-.159 1.43 15.302 15.302 0 01-3.095 1.92 15.435 15.435 0 01-6.524 1.422h-.008zM9.49 6.179c-.435 0-.879-.142-1.243-.443a1.96 1.96 0 01-.285-2.773c.333-.41.808-.663 1.33-.719a1.936 1.936 0 011.45.435 1.96 1.96 0 01.284 2.773 1.959 1.959 0 01-1.536.727zm0-2.03s-.04 0-.047.023c-.016.024-.016.071.008.087.023.024.07.016.087-.008.016-.024.016-.071-.008-.087a.06.06 0 00-.04-.016zm13.911 33.545c-1.053 0-2.209-.608-2.636-.86a22.643 22.643 0 01-2.573-1.747 22.72 22.72 0 01-3.096-2.947c-3.389-3.91-4.972-6.51-7.593-10.831a1.021 1.021 0 01.34-1.399 1.026 1.026 0 011.402.34c2.652 4.369 4.117 6.779 7.395 10.555a20.44 20.44 0 002.81 2.678 19.657 19.657 0 002.344 1.589c.507.292 1.03.481 1.37.553-.08-.53-.452-1.667-1.505-3.595a1.022 1.022 0 011.797-.972c2.368 4.353 1.924 5.586 1.18 6.226-.348.292-.776.403-1.227.403l-.008.008zM43.408 49.15c-.118 0-.237-.023-.356-.063a24.053 24.053 0 01-7.316-4.345 24.438 24.438 0 01-6.302-8.501 1.019 1.019 0 011.86-.83 22.347 22.347 0 005.773 7.79 22.15 22.15 0 005.803 3.619c.27-.735.562-1.794.451-2.773-.04-.348-.103-.877-.411-1.47-.095-.174-.174-.284-.357-.553l-.15-.221a68.609 68.609 0 01-.99-1.501 1.018 1.018 0 01.309-1.407c.475-.3 1.1-.166 1.41.308.213.34.546.846.965 1.462l.15.221c.246.364.349.514.468.75.49.925.586 1.77.633 2.181.238 2.063-.72 4.172-1.021 4.773-.174.355-.538.56-.91.56h-.009zM54.01 33.76a.975.975 0 01-.507-.134 29.894 29.894 0 01-2.446-1.58 1.02 1.02 0 01-.238-1.423c.325-.458.966-.56 1.425-.237a26.492 26.492 0 002.273 1.47 1.018 1.018 0 01-.507 1.904z"/><path d="M58.024 35.332c-1.315 0-2.906-.593-4.592-1.754a1.015 1.015 0 01-.262-1.414 1.02 1.02 0 011.418-.26c2.161 1.485 3.72 1.635 4.251 1.137.491-.458.475-1.896-.736-3.974a1.013 1.013 0 01.372-1.39 1.017 1.017 0 011.394.37c1.615 2.782 1.75 5.207.356 6.487-.578.53-1.33.798-2.201.798zm-.934-8.051c-.285 0-.57-.118-.776-.355a74.61 74.61 0 00-4.798-5.072c-5.938-5.728-12.842-10.484-20.514-14.15a1.027 1.027 0 01-.483-1.36 1.029 1.029 0 011.362-.481c7.87 3.753 14.956 8.643 21.052 14.521a76.74 76.74 0 014.925 5.215 1.022 1.022 0 01-.111 1.438 1.01 1.01 0 01-.665.244h.008zM28.975 6.74a.995.995 0 01-.364-.071 21.486 21.486 0 00-.824-.3 37.34 37.34 0 00-9.2-2.007 1.02 1.02 0 11.183-2.03c1.686.15 3.372.41 5.027.773a38.838 38.838 0 015.542 1.667c.523.198.792.79.586 1.312a1.023 1.023 0 01-.95.656z"/><path d="M39.125 11.156a.573.573 0 01-.253-.063 10.818 10.818 0 00-1.948-.759 10.347 10.347 0 00-2.636-.363c-.238 0-.436 0-.563.016a.555.555 0 01-.593-.53.565.565 0 01.53-.592 10.871 10.871 0 013.563.387c.744.205 1.472.49 2.161.837a.557.557 0 01.246.751.557.557 0 01-.499.308l-.008.008zm4.26 3.216a.533.533 0 01-.19-.032 24.454 24.454 0 00-2.043-.624 23.25 23.25 0 00-2.684-.514c-.238-.031-.428-.047-.562-.063a.559.559 0 01-.507-.608.57.57 0 01.61-.506c.142.016.348.032.594.063.926.119 1.876.3 2.818.538.729.181 1.45.403 2.146.655a.561.561 0 01-.19 1.09h.008zm5.265 4.124a.59.59 0 01-.222-.047 14.943 14.943 0 00-2.003-.68 14.77 14.77 0 00-2.66-.442c-.238-.016-.428-.024-.563-.032a.564.564 0 01-.546-.577.564.564 0 01.578-.545c.143 0 .356.016.61.032.95.07 1.916.229 2.866.482.728.19 1.457.434 2.153.734a.558.558 0 01-.214 1.075zm-8.694 23.789a.54.54 0 01-.403-.174l-3.16-3.287a.56.56 0 01.808-.774l3.16 3.287a.56.56 0 01-.405.948zm23.578 17.318a.832.832 0 01-.791-.561 15.163 15.163 0 01-.864-4.685c-.047-2.125-.102-4.124 1.291-5.61 1.417-1.509 3.468-1.564 5.645-1.627a15.943 15.943 0 015.265.75.842.842 0 11-.514 1.604 14.243 14.243 0 00-4.703-.671c-1.972.055-3.524.095-4.466 1.098-.918.98-.879 2.496-.839 4.416a13.5 13.5 0 00.768 4.172.84.84 0 01-.792 1.114zm22.294-37.278c-.38 0-.744-.213-.918-.576-.546-1.13-.76-2.26-.65-3.35.579-5.578 9.248-8.36 15.582-10.39 6.682-2.14 13.761-3.373 21.029-3.658.538-.04 1.037.411 1.061.98.023.56-.42 1.035-.982 1.059-7.086.276-13.974 1.47-20.482 3.555-5.139 1.651-13.745 4.409-14.18 8.667-.072.719.079 1.477.459 2.267a1.017 1.017 0 01-.919 1.462v-.016zm114.193 6.234h-.119a27.23 27.23 0 01-4.869-1.02c-2.114-.647-3.69-1.437-4.355-1.77l-.221-.11a282.78 282.78 0 00-22.114-9.567c-6.864-2.623-12.295-4.701-19.595-6.518a123.992 123.992 0 00-23.713-3.485 1.017 1.017 0 11.103-2.03 125.64 125.64 0 0124.109 3.547c7.426 1.85 12.897 3.943 19.833 6.59a285.44 285.44 0 0122.271 9.63l.246.119c.681.34 2.098 1.05 4.045 1.651 1.473.45 2.985.767 4.505.94.563.063.958.57.895 1.122a1.01 1.01 0 01-1.013.9h-.008z"/><path d="M104.672 40.347a1.09 1.09 0 01-.467-.11c-1.75-.91-4.363-2.3-6.841-3.785-.657-.395-1.884-1.122-3.468-2.189a44.337 44.337 0 01-1.544-1.074 67.03 67.03 0 01-5.566-4.433c-.047-.047-.095-.094-.134-.15a17.92 17.92 0 00-.396-.482c-1.79-2.164-3.476-4.416-2.771-6.028.222-.513.768-1.137 2.082-1.209a1.009 1.009 0 011.077.956 1.018 1.018 0 01-.958 1.075 1.67 1.67 0 00-.333.047c0 .364.372 1.32 2.478 3.864.159.19.285.347.38.466a67.328 67.328 0 005.329 4.235c.53.379 1.03.719 1.496 1.042 1.536 1.035 2.732 1.747 3.373 2.134a134.157 134.157 0 006.73 3.72c.499.262.697.87.435 1.376a1.026 1.026 0 01-.902.553v-.008zm40.592 5.933c-9.96 0-19.524-1.122-19.643-1.138a164.166 164.166 0 01-18.012-3.286 1.015 1.015 0 11.475-1.975 160.343 160.343 0 0017.782 3.239c.127.016 13.595 1.596 25.091.98a80.393 80.393 0 0010.744-1.304c1.591-.3 2.454-.514 6.072-1.39l4.378-1.067c1.434-.348 2.684-.664 3.793-.94 3.309-.83 5.495-1.383 7.616-1.533 3.144-.221 6.35.047 9.517.806.546.126.887.68.752 1.224a1.01 1.01 0 01-1.227.751 29.618 29.618 0 00-8.899-.75c-1.948.134-3.951.64-7.26 1.477-1.117.284-2.376.6-3.809.948l-4.378 1.066c-3.571.87-4.529 1.107-6.175 1.415a84.29 84.29 0 01-11.014 1.335c-1.908.103-3.863.142-5.803.142zm57.963-17.65c-.435 0-.839-.284-.973-.719a1.015 1.015 0 01.673-1.272c2.375-.727 14.758-4.44 24.963-5.941 4.98-.735 8.63-.806 12.604-.253a39.67 39.67 0 013.864.743c.546.134.879.687.744 1.232a1.01 1.01 0 01-1.235.743 37.516 37.516 0 00-3.665-.703c-3.769-.53-7.253-.459-12.027.245-10.055 1.485-22.311 5.15-24.663 5.878a.996.996 0 01-.3.047h.015zm29.326 36.975c-.071 0-.142 0-.213-.024-4.561-.98-12.32-4.748-15.154-7.347-2.447-1.825-4.402-3.271-6.065-4.504-5.756-4.258-8.139-6.012-15.7-12.364a1.02 1.02 0 01-.127-1.43 1.026 1.026 0 011.433-.127c7.514 6.305 9.881 8.06 15.605 12.286 1.679 1.24 3.65 2.694 6.12 4.543.032.023.056.047.088.07 2.549 2.371 9.999 5.974 14.235 6.882.554.119.903.656.784 1.21a1.023 1.023 0 01-.998.805h-.008z"/><path d="M232.553 65.605a1.02 1.02 0 01-.744-.324c-2.652-2.82-6.057-7.569-7.189-14.174-.34-1.975-1.132-6.597.728-11.85 1.703-4.796 4.672-7.57 8.108-10.785a46.248 46.248 0 0110.197-7.197 1.018 1.018 0 11.951 1.801 44.225 44.225 0 00-9.747 6.881c-3.373 3.153-6.041 5.65-7.577 9.979-1.686 4.756-.958 9.014-.641 10.832 1.045 6.107 4.204 10.508 6.666 13.123.388.41.365 1.05-.047 1.438a1.039 1.039 0 01-.697.276h-.008zM218.326 33.82a.994.994 0 01-.792-.378 1.016 1.016 0 01.15-1.43 27.707 27.707 0 015.645-3.532 28.102 28.102 0 017.649-2.33 1.018 1.018 0 11.308 2.014 25.885 25.885 0 00-12.327 5.444 1.03 1.03 0 01-.641.229l.008-.016zm4.172 22.083c-.214 0-.435-.071-.625-.213-2.201-1.699-6.113-5.357-7.506-10.777-.428-1.675-1.33-5.167.245-8.73.222-.498.483-.987.776-1.446a1.016 1.016 0 011.41-.3c.475.308.609.932.3 1.406a7.824 7.824 0 00-.625 1.162c-1.291 2.923-.538 5.838-.135 7.41 1.243 4.836 4.783 8.138 6.778 9.67.443.34.53.98.182 1.43a1.003 1.003 0 01-.808.396l.008-.008zM122.043 34.066c-.214 0-.428 0-.65-.016-4.631-.198-7.909-2.426-9.453-3.737a1.013 1.013 0 01-.119-1.43 1.018 1.018 0 011.433-.119c1.346 1.146 4.204 3.082 8.218 3.255 4.03.166 6.77-1.516 8.583-2.638.99-.617 1.37-.988 1.496-1.154-.301-.34-1.599-.932-5.811-1.683-3.785-.671-7.767-.837-11.837-.49a1.018 1.018 0 01-1.1-.924c-.048-.56.364-1.05.926-1.098 4.244-.364 8.409-.19 12.367.513 3.872.688 7.363 1.486 7.53 3.587.079.956-.673 1.849-2.502 2.979-1.813 1.122-4.79 2.955-9.089 2.955h.008z"/><path d="M104.133 35.543c-.356 0-.704-.19-.894-.521a1.012 1.012 0 01.395-1.383c3.128-1.73 5.733-4.045 7.752-6.858a22.664 22.664 0 002.644-4.843 1.02 1.02 0 011.322-.569c.523.206.776.798.57 1.32a24.999 24.999 0 01-2.882 5.27c-2.193 3.065-5.027 5.577-8.416 7.458a1.01 1.01 0 01-.491.126zm-9.366-20.186a1.62 1.62 0 011.868-1.327 1.618 1.618 0 11-.538 3.191 1.618 1.618 0 01-1.33-1.864zm45.683 38.35a37.9 37.9 0 01-5.225-.427 37.368 37.368 0 01-6.912-1.738c-8.234-2.923-12.739-5.444-20.197-9.615a1.016 1.016 0 11.997-1.77c7.617 4.259 11.813 6.605 19.889 9.473a35.952 35.952 0 006.532 1.643c1.615.245 3.254.38 4.885.403 1.86-.07 2.755-.324 3.159-.505-.499-.34-1.774-1.004-4.965-2.007a1.015 1.015 0 11.61-1.936c5.131 1.612 6.864 2.718 6.627 4.211-.301 1.865-3.23 2.189-5.408 2.276l.008-.008z"/><path d="M143.562 49.267c-.633 0-1.235-.032-1.805-.064-8.179-.505-14.782-2.243-15.059-2.322a91.897 91.897 0 01-9.176-2.979 1.021 1.021 0 01-.586-1.311 1.025 1.025 0 011.314-.585 90.602 90.602 0 008.97 2.915c.27.071 6.675 1.762 14.656 2.252 1.836.11 3.816.158 6.135-.664a12.99 12.99 0 003.547-1.92 1.016 1.016 0 011.426.198 1.01 1.01 0 01-.198 1.422 15.024 15.024 0 01-4.094 2.212c-1.892.672-3.61.846-5.138.846h.008z"/><path d="M177.203 53.707a40.58 40.58 0 01-7.926-.782c-5.787-1.162-11.377-3.643-16.167-7.174a1.019 1.019 0 01-.214-1.422c.333-.45.974-.545 1.426-.214 4.552 3.358 9.857 5.72 15.351 6.819 4.133.83 8.353.964 12.549.418-.158-1.358-.617-3.768-1.884-5.506-.364-.498-.966-1.328-2.027-2-.277-.18-.491-.284-1.069-.568l-.403-.198a151.192 151.192 0 01-2.708-1.382 1.017 1.017 0 11.95-1.801c.61.323 1.528.797 2.668 1.358l.396.198c.61.3.887.434 1.267.68 1.385.884 2.161 1.943 2.573 2.512 1.971 2.686 2.304 6.439 2.359 7.521.024.522-.348.98-.863 1.059-2.09.324-4.188.49-6.286.49l.008-.008zm8.883-32.085c-1.496 0-3.088-.102-4.861-.292a1.015 1.015 0 01-.903-1.122 1.01 1.01 0 011.124-.9c1.711.181 3.231.276 4.656.284a1.016 1.016 0 11-.008 2.03h-.008zm.903-11.542c-.103 0-.214-.016-.317-.048-1.14-.38-2.28-.766-3.42-1.161-3.143-1.083-6.397-2.205-9.77-2.947-14.679-2.979-28.978-4.259-42.485-3.8a1.022 1.022 0 01-1.053-.98 1.017 1.017 0 01.982-1.051c13.657-.466 28.122.822 42.975 3.84 3.508.774 6.809 1.912 10.008 3.018 1.132.387 2.264.782 3.396 1.153.539.174.824.75.65 1.28a1.025 1.025 0 01-.966.703v-.008zm-77.765-2.379c-.388 0-.76-.221-.926-.592-.23-.514 0-1.114.507-1.343a65.807 65.807 0 017.988-3.018A65.883 65.883 0 01127.561.417a1.012 1.012 0 011.14.877 1.01 1.01 0 01-.879 1.138 63.648 63.648 0 00-10.435 2.26 64.397 64.397 0 00-7.743 2.922.986.986 0 01-.42.095v-.008z"/><path d="M129.413 4.928a1.04 1.04 0 01-.863-.466 1.019 1.019 0 01.309-1.406c.214-.135.531-.332.919-.553a19.086 19.086 0 014.679-1.865 19.141 19.141 0 013.911-.569 1.017 1.017 0 11.087 2.03 17.164 17.164 0 00-7.68 2.165c-.348.198-.625.372-.823.49a.975.975 0 01-.546.158l.007.016zm14.196.892a1.015 1.015 0 01-.546-1.872c.214-.134.531-.331.918-.553a19.04 19.04 0 014.688-1.864 19.141 19.141 0 013.911-.569 1.012 1.012 0 011.061.972 1.017 1.017 0 01-.974 1.059 17.157 17.157 0 00-7.68 2.165c-.348.197-.625.37-.823.49a.999.999 0 01-.547.157l-.008.016zm13.096 1.85c-.333 0-.665-.166-.863-.467a1.02 1.02 0 01.308-1.406c.214-.134.531-.332.919-.553a19.286 19.286 0 018.598-2.433 1.017 1.017 0 11.087 2.03 17.164 17.164 0 00-7.68 2.165c-.348.197-.625.371-.823.49a.975.975 0 01-.546.158v.016zm19.461 41.944h-.024c-3.484-.087-6.793-.869-9.826-2.338a23.427 23.427 0 01-3.768-2.284 1.01 1.01 0 01-.206-1.422c.34-.45.974-.545 1.425-.205a20.99 20.99 0 003.436 2.086c2.771 1.335 5.796 2.054 8.986 2.133.562.016 1.006.482.998 1.043a1.023 1.023 0 01-1.021.995v-.008zm-1.837-4.1c-.119 0-.238-.024-.348-.064l-5.804-2.117a1.017 1.017 0 11.697-1.912l5.803 2.117c.531.19.8.775.61 1.304-.151.41-.538.672-.958.672zm14.457-23.987a1.016 1.016 0 01-.032-2.03c3.84-.11 5.479-.853 5.748-2.639-.728-2.441-2.597-4.424-5.7-6.052a1.017 1.017 0 11.95-1.801c3.713 1.943 5.93 4.4 6.769 7.505.032.119.04.245.032.364-.428 4.44-5.55 4.59-7.735 4.653h-.032zm57.522 5.588c-.356 0-.713-.174-.926-.49-.618-.892-.95-1.833-.998-2.797-.245-4.803 6.572-8.2 11.544-10.681 5.201-2.592 10.839-4.488 16.745-5.633a1.118 1.118 0 11.427 2.196c-5.708 1.106-11.155 2.94-16.167 5.436-3.919 1.959-10.475 5.23-10.308 8.572.024.537.229 1.09.609 1.643a1.115 1.115 0 01-.293 1.557 1.09 1.09 0 01-.633.197z"/><path d="M265.563 39.954c-.111 0-.222-.016-.325-.048a86.37 86.37 0 01-7.743-2.757 60.417 60.417 0 01-4.513-2.038 56.51 56.51 0 01-5.122-2.932 1.459 1.459 0 01-.174-.134c-.08-.079-.214-.197-.372-.34-1.798-1.596-3.516-3.286-3.104-4.843.111-.426.491-1.185 1.758-1.453a1.118 1.118 0 01.522 2.173c.214.394.824 1.113 2.312 2.448.142.127.261.237.356.316a54.798 54.798 0 004.83 2.758 57.008 57.008 0 004.354 1.967 84.27 84.27 0 007.538 2.686c.594.182.926.806.744 1.399-.15.482-.594.798-1.077.798h.016z"/><path d="M277.938 40.76c-3.769 0-7.561-.158-11.322-.474a1.116 1.116 0 01-1.021-1.21 1.113 1.113 0 011.211-1.018c4.948.418 9.944.553 14.861.41.103 0 11.251-.403 20.514-2.338a67.492 67.492 0 008.551-2.394c1.251-.442 1.924-.719 4.758-1.888l3.436-1.415c.958-.395 1.813-.758 2.605-1.09 2.478-1.05 4.267-1.801 6.397-2.362 2.898-.759 5.962-1.098 9.129-1.027.617.016 1.108.53 1.093 1.145-.016.617-.555 1.09-1.148 1.09-2.954-.07-5.812.253-8.504.957-1.971.513-3.697 1.248-6.088 2.251-.792.34-1.655.703-2.621 1.099l-3.436 1.414c-2.803 1.161-3.555 1.47-4.869 1.928a69.12 69.12 0 01-8.844 2.472c-9.461 1.976-20.791 2.378-20.91 2.386-1.259.04-2.525.056-3.8.056l.008.008zm60.497-22.865h-.048a21.276 21.276 0 01-2.359-.221 22.04 22.04 0 01-3.84-.917l-.174-.055a232.172 232.172 0 00-19.192-5.017c-5.914-1.28-10.593-2.283-16.753-2.852-6.5-.593-13.135-.553-19.707.126a1.12 1.12 0 11-.237-2.228 104.653 104.653 0 0120.142-.134c6.294.577 11.029 1.596 17.022 2.892a232.904 232.904 0 0119.382 5.064l.206.063c.538.174 1.805.585 3.468.83.665.095 1.338.166 2.011.19a22.414 22.414 0 003.206-.806c1.251-.42 2.146-.838 2.486-.996 3.365-1.572 11.132-4.464 17.862-6.407 3.792-1.099 6.69-1.739 10.3-1.786a32.14 32.14 0 013.27.119 1.122 1.122 0 11-.198 2.236 32.546 32.546 0 00-3.048-.111c-3.349.047-6.096.656-9.707 1.699-7.323 2.117-14.773 4.993-17.505 6.265a24.53 24.53 0 01-2.763 1.106 25.57 25.57 0 01-3.658.916 1.54 1.54 0 01-.19.016l.024.008zm32.857 26.112c-.151 0-.309-.032-.452-.095l-15.739-6.953a129.483 129.483 0 01-8.377-4.606 131.197 131.197 0 01-6.017-3.847 1.116 1.116 0 01-.293-1.557 1.115 1.115 0 011.56-.292 127.178 127.178 0 005.914 3.776 124.208 124.208 0 008.179 4.504l15.684 6.929c.57.252.823.908.57 1.477a1.114 1.114 0 01-1.029.664z"/><path d="M371.292 44.007a1.12 1.12 0 01-.855-.395c-2.858-3.382-5.083-7.11-6.611-11.085-1.283-3.326-2.288-5.95-1.869-9.354.483-3.856 2.518-6.44 5.091-9.71l.222-.284a38.317 38.317 0 017.458-7.19 1.12 1.12 0 111.33 1.801 36.146 36.146 0 00-7.023 6.771l-.221.284c-2.455 3.113-4.228 5.365-4.632 8.604-.356 2.845.475 5.001 1.734 8.272 1.441 3.745 3.539 7.26 6.239 10.445.396.474.34 1.177-.135 1.58-.213.174-.467.26-.72.26h-.008zm-95.785-11.725c-3.198 0-5.669-1.2-6.943-1.983a1.114 1.114 0 01-.364-1.54 1.112 1.112 0 011.543-.364c1.212.743 3.722 1.936 6.928 1.58 3.215-.355 5.194-2.046 6.508-3.16.42-.356.673-.616.824-.79-.531-.205-1.766-.41-4.513-.482-3.143-.071-6.39.284-9.636 1.075a1.116 1.116 0 01-1.354-.822c-.15-.6.222-1.209.824-1.351 3.436-.838 6.88-1.217 10.221-1.138 3.357.08 6.405.308 6.857 2.197.213.9-.293 1.777-1.758 3.025-1.425 1.217-3.816 3.248-7.719 3.682-.483.055-.958.08-1.41.08l-.008-.009z"/><path d="M262.879 35.593c-.332 0-.665-.15-.887-.435a1.118 1.118 0 01.198-1.572c2.296-1.778 4.102-3.95 5.376-6.463a18.707 18.707 0 001.528-4.211 1.121 1.121 0 012.186.506 20.87 20.87 0 01-1.711 4.716c-1.417 2.813-3.436 5.239-6.001 7.221a1.12 1.12 0 01-.689.238zm-8.693-13.092h-.04a2.453 2.453 0 01.04-4.906h.031a2.454 2.454 0 01-.039 4.906h.008zm0-2.67a.213.213 0 00-.214.213c0 .071.032.127.063.15.032.032.08.064.151.064a.23.23 0 00.222-.214.225.225 0 00-.214-.221l-.008.008zm36.356 26.309a31.79 31.79 0 01-5.866-.553c-7.102-1.36-11.093-2.844-17.712-5.317a1.12 1.12 0 01-.657-1.438c.222-.577.863-.87 1.441-.656 6.73 2.512 10.435 3.895 17.347 5.214 1.789.34 3.626.514 5.439.514h.032c1.33 0 2.676-.095 3.998-.284 1.117-.158 2.075-.546 2.415-.806-.324-.427-1.615-1.493-5.13-3.003a1.119 1.119 0 11.886-2.054c6.216 2.663 6.754 4.33 6.524 5.483-.388 1.944-3.721 2.513-4.378 2.607a32.8 32.8 0 01-4.307.309h-.04l.008-.016zm29.239-4.527a32.55 32.55 0 01-1.52-.032c-4.901-.221-9.809-1.556-14.188-3.855a1.111 1.111 0 01-.467-1.51 1.116 1.116 0 011.512-.465 31.902 31.902 0 0013.246 3.602c3.349.15 6.682-.237 9.921-1.145-.325-1.083-.966-2.742-2.083-3.864-.348-.347-.918-.924-1.821-1.32-.237-.102-.419-.165-.91-.315l-.348-.11a115.63 115.63 0 01-2.384-.79 1.12 1.12 0 01-.696-1.423 1.127 1.127 0 011.425-.695c.538.181 1.338.458 2.335.774l.349.11c.53.167.792.253 1.148.404 1.282.569 2.074 1.358 2.494 1.777 2.003 2.007 2.763 5.088 2.945 5.981a1.122 1.122 0 01-.76 1.296 33.713 33.713 0 01-10.19 1.588l-.008-.008zm4.212-27.265a1.128 1.128 0 01-1.124-1.067 1.12 1.12 0 011.069-1.17 38.897 38.897 0 003.8-.347 1.119 1.119 0 11.333 2.212c-1.227.182-2.55.308-4.03.372h-.055.007z"/><path d="M327.905 13.984a1.124 1.124 0 01-.072-2.243c3.856-.245 5.764-1.525 5.946-2.687.159-1.003-.91-2.662-4.457-4.06a1.126 1.126 0 01-.634-1.454c.23-.577.879-.861 1.457-.632 4.046 1.596 6.231 4.029 5.843 6.494-.404 2.568-3.404 4.274-8.02 4.575h-.071l.008.007zm-47.362-8.983c-.515 0-.974-.355-1.093-.869-.134-.6.246-1.2.847-1.335C292.181.119 304.176-.64 315.957.537c3.31.332 6.643.822 9.921 1.454.609.119 1.005.703.886 1.312a1.118 1.118 0 01-1.314.884 106.17 106.17 0 00-9.714-1.43c-11.536-1.153-23.293-.41-34.94 2.22-.087.016-.166.032-.245.032l-.008-.008zm-17.015 7.269c-.364 0-.728-.182-.942-.506a1.113 1.113 0 01.325-1.548 54.953 54.953 0 016.159-3.477 53.98 53.98 0 016.271-2.552c.499-.165.926-.3 1.227-.395.586-.19 1.22.143 1.402.735a1.113 1.113 0 01-.737 1.399c-.285.086-.689.22-1.171.379a52.3 52.3 0 00-11.916 5.783c-.19.127-.404.182-.61.182h-.008z"/><path d="M285.04 6.518a.847.847 0 01-.634-.284.837.837 0 01.072-1.185c.158-.143.388-.34.681-.57a15.58 15.58 0 013.578-2.1 16.208 16.208 0 013.12-.957.842.842 0 01.989.664.843.843 0 01-.665.988c-.958.19-1.892.474-2.787.853a14.054 14.054 0 00-3.808 2.386.826.826 0 01-.554.213l.008-.008zm7.711-1.066a.841.841 0 01-.459-1.549 31.726 31.726 0 014.283-2.3 31.554 31.554 0 012.93-1.137.842.842 0 11.538 1.596 30.63 30.63 0 00-2.779 1.083 30.277 30.277 0 00-4.053 2.18.881.881 0 01-.452.134l-.008-.007zm9.383.015a.843.843 0 01-.507-1.517c.166-.118.404-.292.697-.497a22.269 22.269 0 016.587-3.018.85.85 0 011.037.584.841.841 0 01-.586 1.035 21.92 21.92 0 00-2.779.98 20.407 20.407 0 00-3.301 1.81c-.278.18-.491.347-.642.457a.838.838 0 01-.499.166h-.007zm18.138 30.283s-.079 0-.119-.007l-6.325-.877a.844.844 0 01-.721-.949.845.845 0 01.95-.718l6.326.877c.459.063.784.49.721.948a.843.843 0 01-.832.727zm40.712-1.69a.812.812 0 01-.452-.135 21.124 21.124 0 01-4.948-4.337c-1.853-2.236-3.603-4.345-3.381-7.032.23-2.749 2.391-4.542 4.671-6.446a21.78 21.78 0 016.334-3.674.841.841 0 11.594 1.572 20.296 20.296 0 00-5.851 3.39c-2.177 1.817-3.895 3.247-4.069 5.293-.167 2.007 1.227 3.69 2.992 5.823a19.31 19.31 0 004.553 3.99.84.84 0 01-.451 1.548l.008.008zM1.982 81.37c-.412 0-.8-.254-.95-.657-.293-.758-.364-1.509-.23-2.228.673-3.515 6.057-4.74 9.984-5.64 4.07-.933 8.321-1.296 12.636-1.099.563.024.998.506.974 1.067-.024.56-.499.98-1.069.972a44.787 44.787 0 00-12.082 1.043c-3 .687-8.02 1.832-8.44 4.037-.063.34-.015.719.135 1.122a1.016 1.016 0 01-.958 1.374v.008z"/><path d="M13.177 93.52c-.174 0-.356-.047-.514-.142a62.155 62.155 0 01-4.925-3.231c-.68-.498-1.623-1.177-2.803-2.189a41.118 41.118 0 01-3.072-2.907 1.232 1.232 0 01-.126-.158 5.272 5.272 0 00-.198-.284C.525 83.139-.417 81.614.193 80.5c.174-.324.617-.86 1.662-.821.563.015 1.006.481.99 1.043a1.021 1.021 0 01-.712.94c.134.331.443.877 1.076 1.793.072.103.135.198.182.269.895.94 1.861 1.848 2.859 2.694a40.423 40.423 0 002.676 2.086 60.136 60.136 0 004.758 3.12 1.015 1.015 0 01-.522 1.889l.015.007z"/><path d="M40.548 98.64c-.523 0-1.037-.008-1.552-.024-6.92-.22-14.624-1.8-14.948-1.872A96.04 96.04 0 0113.597 93.9a1.016 1.016 0 01-.641-1.288c.182-.53.752-.822 1.29-.64a94.078 94.078 0 0010.222 2.781c.07.016 7.862 1.612 14.6 1.833 2.081.071 4.211 0 6.31-.221.941-.095 1.456-.174 3.626-.514l2.612-.403c.729-.11 1.386-.22 1.987-.316 1.9-.308 3.278-.537 4.862-.56 2.153-.04 4.37.244 6.571.829.546.142.863.703.72 1.248a1.02 1.02 0 01-1.25.72c-2.02-.538-4.038-.799-6.01-.767-1.44.023-2.755.237-4.568.537-.61.103-1.275.205-2.01.324l-2.606.403c-2.153.332-2.74.427-3.729.521a51.01 51.01 0 01-5.027.253h-.008zm28.106-8.114c-.411 0-.83-.016-1.243-.04a.596.596 0 01-.205-.039 17.1 17.1 0 01-1.624-.56c-1.258-.506-2.153-1.06-2.541-1.296l-.103-.064a165.784 165.784 0 00-12.454-6.707c-3.887-1.88-6.951-3.366-11.124-4.788a73.253 73.253 0 00-13.657-3.224 1.017 1.017 0 01-.871-1.145 1.014 1.014 0 011.148-.87 74.132 74.132 0 0114.045 3.311c4.284 1.462 7.403 2.97 11.346 4.883a168.518 168.518 0 0112.612 6.786l.135.08c.34.213 1.14.703 2.233 1.145.427.174.87.324 1.314.458.768.048 1.544.04 2.304-.023a15.018 15.018 0 001.868-.27c2.613-.528 8.504-1.224 13.515-1.445 2.835-.118 4.972-.079 7.506.498a24.82 24.82 0 012.272.64c.53.181.816.758.642 1.288a1.03 1.03 0 01-1.291.64c-.673-.23-1.37-.427-2.074-.585-2.312-.53-4.3-.569-6.968-.45-5.423.237-11.068.971-13.174 1.398-.309.063-1.077.221-2.13.308-.49.04-.99.063-1.48.063v.008zm17.213 23.615a1.01 1.01 0 01-.618-.213l-9.746-7.482a91.17 91.17 0 01-5.051-4.63 97.363 97.363 0 01-3.54-3.69 1.013 1.013 0 01.072-1.438 1.017 1.017 0 011.44.072 90.713 90.713 0 008.36 8.106l9.708 7.45c.444.34.53.98.19 1.43a1.015 1.015 0 01-.807.395h-.008z"/><path d="M85.875 114.141c-.372 0-.737-.205-.91-.561-1.426-2.852-2.344-5.838-2.74-8.88-.333-2.552-.594-4.567.3-6.913 1.006-2.647 2.875-4.116 5.242-5.973l.206-.158a27.838 27.838 0 016.445-3.769 1.007 1.007 0 011.33.546 1.01 1.01 0 01-.547 1.327 25.793 25.793 0 00-5.97 3.484l-.205.158c-2.201 1.73-3.792 2.979-4.6 5.096-.713 1.864-.499 3.484-.182 5.925.364 2.813 1.22 5.586 2.541 8.233a1.016 1.016 0 01-.459 1.367c-.142.071-.3.11-.451.11v.008zM23.311 90.107a9.81 9.81 0 01-1.155-.07c-2.835-.364-4.727-1.905-5.606-2.79a1.012 1.012 0 01.008-1.438 1.017 1.017 0 011.441.008c.697.703 2.185 1.92 4.418 2.205 2.225.292 3.848-.53 4.924-1.075.159-.079.285-.15.388-.205-.498-.253-1.401-.546-2.691-.893a26.315 26.315 0 00-6.81-.87 1.023 1.023 0 01-1.02-1.018c0-.561.458-1.02 1.02-1.02 2.55 0 5.012.316 7.34.94 2.494.672 4.552 1.344 4.545 2.892 0 .933-.895 1.51-1.853 1.991-.982.49-2.684 1.351-4.949 1.351v-.008z"/><path d="M12.053 90.044a1.015 1.015 0 01-.42-1.944c1.861-.837 3.46-2.022 4.743-3.523a13.263 13.263 0 001.742-2.623 1.016 1.016 0 011.37-.45c.506.252.704.86.45 1.366a15.303 15.303 0 01-2.01 3.034c-1.48 1.738-3.318 3.105-5.463 4.061a.976.976 0 01-.42.087l.008-.008zM8.459 79.52a1.97 1.97 0 01-1.916-2.465c.134-.513.45-.94.91-1.2.46-.27.99-.34 1.496-.214a1.972 1.972 0 011.425 2.402c-.134.506-.45.94-.91 1.2a1.95 1.95 0 01-.997.278h-.008zm0-2.03s-.056.024-.064.047c0 .032.016.072.048.08a.066.066 0 00.079-.048c.008-.032-.008-.071-.048-.079H8.46zm24.631 25.069c-.325 0-.594-.024-.769-.04a22.352 22.352 0 01-3.071-.521 22.995 22.995 0 01-4.038-1.391c-4.711-2.14-7.237-3.855-11.425-6.692a1.015 1.015 0 01-.27-1.414 1.02 1.02 0 011.418-.268c4.236 2.868 6.571 4.448 11.124 6.526a20.48 20.48 0 003.674 1.264c.91.221 1.852.379 2.787.474.577.055 1.14.008 1.472-.063-.293-.45-1.108-1.328-2.866-2.647a1.018 1.018 0 01-.206-1.422c.34-.45.974-.537 1.425-.206 3.967 2.971 4.078 4.282 3.666 5.167-.483 1.043-1.94 1.233-2.93 1.233h.008zm22.904 1.904a24.25 24.25 0 01-6.769-.964 24.505 24.505 0 01-9.28-5.112 1.02 1.02 0 01-.086-1.438 1.026 1.026 0 011.44-.087 22.531 22.531 0 008.504 4.685c2.209.64 4.49.933 6.785.877-.055-.774-.237-1.872-.744-2.71-.182-.3-.46-.758-.99-1.161a5.856 5.856 0 00-.554-.355l-.23-.135a97.426 97.426 0 01-1.528-.948 1.018 1.018 0 111.1-1.714 60 60 0 001.49.924l.221.134c.372.23.53.324.744.482.832.632 1.275 1.367 1.489 1.723 1.084 1.785 1.084 4.1 1.06 4.764-.015.521-.427.94-.95.979-.57.04-1.131.056-1.702.056zm4.846-18.464h-.095a29.527 29.527 0 01-2.882-.419c-.554-.11-.91-.64-.807-1.193.11-.553.649-.908 1.195-.806.982.19 1.853.316 2.676.395.562.048.974.546.926 1.106-.047.53-.49.925-1.013.925v-.008z"/><path d="M62.811 86.189a12.47 12.47 0 01-2.153-.198 1.009 1.009 0 01-.824-1.177 1.01 1.01 0 011.18-.822c2.59.459 4.062-.063 4.347-.727.261-.616-.356-1.92-2.328-3.31a1.013 1.013 0 01-.245-1.414 1.018 1.018 0 011.417-.245c2.629 1.857 3.76 4.006 3.032 5.752-.586 1.398-2.185 2.149-4.426 2.149v-.008zm-1.884-7.356a1.04 1.04 0 01-.428-.095 74.102 74.102 0 00-6.484-2.615c-7.79-2.733-16.056-4.195-24.56-4.337a1.023 1.023 0 01-1.005-1.035 1.034 1.034 0 011.037-1.004c8.725.143 17.205 1.644 25.201 4.448 2.249.79 4.49 1.691 6.659 2.687.514.237.736.837.498 1.35a1.022 1.022 0 01-.926.593l.008.008zm-44.48-4.867c-.42 0-.815-.26-.958-.68a1.008 1.008 0 01.618-1.295 39.288 39.288 0 019.707-2.102c.38-.031.696-.055.918-.07.57-.04 1.045.387 1.085.947a1.023 1.023 0 01-.95 1.083c-.214.016-.515.031-.871.063a36.904 36.904 0 00-4.56.688 36.444 36.444 0 00-4.64 1.311c-.111.04-.23.055-.34.055h-.009z"/><path d="M32.63 72.805a.574.574 0 01-.498-.3.563.563 0 01.237-.759 11.198 11.198 0 013.404-1.13c.76-.126 1.536-.165 2.32-.134a.57.57 0 01.539.585.565.565 0 01-.586.537 10.11 10.11 0 00-5.146 1.13.53.53 0 01-.262.063l-.008.008zm5.202 1.082a.558.558 0 01-.53-.379.558.558 0 01.348-.711c.134-.047.332-.11.57-.19a23.903 23.903 0 015.012-.987.57.57 0 01.61.513.57.57 0 01-.515.609c-.697.063-1.41.158-2.114.284-.91.166-1.806.387-2.653.648-.23.071-.411.134-.538.174a.491.491 0 01-.182.031l-.008.008zm6.508 1.596a.55.55 0 01-.515-.34.563.563 0 01.301-.734 16.455 16.455 0 013.373-.98 16.916 16.916 0 012.264-.229.57.57 0 01.578.545.564.564 0 01-.546.577c-.697.023-1.41.095-2.106.213a14.88 14.88 0 00-2.605.703c-.221.08-.404.158-.522.206a.523.523 0 01-.214.047l-.008-.008zm7.474 24.074a.596.596 0 01-.206-.04l-4.243-1.675a.566.566 0 01-.317-.727.568.568 0 01.728-.316l4.244 1.675c.285.11.427.443.317.727a.563.563 0 01-.523.356zm28.535 5.964a.843.843 0 01-.61-.26 15.138 15.138 0 01-2.74-3.903c-.934-1.904-1.813-3.706-1.163-5.633.657-1.968 2.502-2.868 4.457-3.824 1.6-.782 3.31-1.288 5.099-1.51a.833.833 0 01.934.735.837.837 0 01-.736.933c-1.592.19-3.128.648-4.553 1.343-1.765.869-3.167 1.548-3.602 2.852-.428 1.272.237 2.639 1.085 4.361a13.52 13.52 0 002.438 3.476.836.836 0 01-.024 1.185.841.841 0 01-.585.237v.008zm16.222-15.968c-.324 0-.64-.158-.839-.442-.46-.672-.712-1.383-.752-2.11-.182-3.571 4.758-6.036 8.369-7.837 3.729-1.865 7.775-3.224 12.018-4.046a1.024 1.024 0 011.196.806 1.016 1.016 0 01-.808 1.193c-4.061.79-7.925 2.086-11.496 3.864-2.755 1.375-7.355 3.674-7.244 5.917.016.348.15.704.396 1.059a1.02 1.02 0 01-.84 1.596z"/><path d="M110.332 98.726a.947.947 0 01-.293-.048 63.111 63.111 0 01-5.55-1.975 45.114 45.114 0 01-3.238-1.462 40.844 40.844 0 01-3.674-2.101c-.055-.04-.11-.08-.158-.127-.056-.055-.15-.134-.262-.237-1.33-1.185-2.605-2.449-2.28-3.673.095-.356.404-.98 1.425-1.193a1.02 1.02 0 011.212.782c.095.434-.111.861-.468 1.082.214.285.642.75 1.473 1.486.095.086.182.157.245.22a38.062 38.062 0 003.413 1.952 40.487 40.487 0 003.096 1.399 58.886 58.886 0 005.36 1.912c.538.166.839.734.681 1.272a1.015 1.015 0 01-.974.719l-.008-.008z"/><path d="M119.176 99.302c-2.7 0-5.416-.11-8.108-.34a1.012 1.012 0 01-.926-1.098 1.017 1.017 0 011.1-.924c3.524.292 7.087.395 10.594.292.071 0 8.02-.284 14.615-1.667a46.77 46.77 0 006.081-1.706c.887-.316 1.37-.514 3.396-1.351l2.447-1.012c.689-.284 1.298-.545 1.861-.782 1.773-.75 3.056-1.295 4.592-1.69a23.758 23.758 0 016.579-.743 1.03 1.03 0 01.998 1.043 1.02 1.02 0 01-1.046.995 22.151 22.151 0 00-6.017.672c-1.393.363-2.612.877-4.307 1.596-.57.245-1.187.505-1.884.79l-2.447 1.011c-2.011.83-2.549 1.05-3.491 1.383a49.533 49.533 0 01-6.342 1.777c-6.777 1.415-14.639 1.699-14.972 1.707-.902.024-1.813.04-2.715.04l-.008.007zm43.205-16.338h-.04a17.627 17.627 0 01-1.71-.158 16.527 16.527 0 01-2.779-.664l-.119-.04a165.15 165.15 0 00-13.689-3.578c-4.22-.909-7.553-1.628-11.939-2.03a71.8 71.8 0 00-14.03.094 1.015 1.015 0 01-1.116-.909 1.013 1.013 0 01.91-1.114 74.615 74.615 0 0114.426-.094c4.513.41 7.901 1.145 12.185 2.07 4.647 1.003 9.31 2.22 13.863 3.626l.15.047c.38.127 1.275.411 2.447.585.459.071.926.11 1.385.134a15.684 15.684 0 002.233-.569c.887-.292 1.512-.592 1.75-.703 2.415-1.13 7.973-3.2 12.794-4.59 2.724-.79 4.814-1.248 7.419-1.288.784-.016 1.583.016 2.359.087.562.048.974.545.927 1.106a1.022 1.022 0 01-1.109.925 21.7 21.7 0 00-2.153-.08c-2.368.032-4.315.467-6.873 1.21-5.217 1.508-10.522 3.555-12.47 4.463-.293.135-.997.466-1.995.798-.863.285-1.749.506-2.644.664-.056.008-.111.016-.174.016l-.008-.008zm23.467 18.653c-.135 0-.277-.031-.412-.087l-11.242-4.97a88.957 88.957 0 01-6.002-3.302 94.276 94.276 0 01-4.307-2.749 1.015 1.015 0 01-.269-1.414 1.02 1.02 0 011.417-.269 95.089 95.089 0 004.212 2.694 86.993 86.993 0 005.827 3.208l11.196 4.946a1.017 1.017 0 01-.412 1.951l-.008-.008z"/><path d="M185.848 101.617c-.293 0-.578-.126-.776-.363-2.059-2.434-3.658-5.12-4.759-7.98-.926-2.401-1.654-4.298-1.345-6.786.348-2.813 1.821-4.677 3.681-7.04l.158-.205a27.566 27.566 0 015.368-5.175 1.024 1.024 0 011.426.213c.332.45.237 1.09-.214 1.422a25.75 25.75 0 00-4.972 4.796l-.159.205c-1.726 2.197-2.977 3.785-3.262 6.036-.245 1.984.341 3.5 1.228 5.8 1.021 2.646 2.509 5.135 4.417 7.402a1.012 1.012 0 01-.775 1.667l-.016.008zm-68.414-8.374c-2.336 0-4.141-.877-5.075-1.446a1.02 1.02 0 01-.333-1.399 1.024 1.024 0 011.402-.331c.839.513 2.581 1.343 4.813 1.098 2.233-.245 3.611-1.422 4.529-2.205.135-.11.238-.213.325-.292-.547-.126-1.489-.205-2.827-.237-2.232-.055-4.529.206-6.825.759a1.026 1.026 0 01-1.235-.751 1.024 1.024 0 01.752-1.232c2.471-.6 4.949-.877 7.356-.822 2.581.063 4.742.237 5.099 1.738.213.916-.547 1.714-1.323 2.378-.974.83-2.779 2.362-5.629 2.678a9.28 9.28 0 01-1.029.056v.008z"/><path d="M108.416 95.605a1.019 1.019 0 01-.626-1.825 13.356 13.356 0 003.777-4.543c.475-.932.831-1.928 1.069-2.963a1.016 1.016 0 011.979.458 15.23 15.23 0 01-1.235 3.421c-1.029 2.039-2.494 3.8-4.347 5.238a1.013 1.013 0 01-.625.214h.008zm-6.215-9.347h-.032a1.982 1.982 0 01-1.948-1.999 1.957 1.957 0 012.003-1.943c.531 0 1.022.221 1.386.6.364.38.562.877.554 1.399a1.98 1.98 0 01-1.971 1.943h.008zm-.064-1.975s.024.055.064.063c.031 0 .063-.031.063-.063h-.127zm0 0h.127s-.039-.087-.063-.063a.063.063 0 00-.064.063zm26.033 18.859c-1.417 0-2.835-.134-4.228-.403-5.091-.972-7.949-2.038-12.684-3.808a1.014 1.014 0 01-.594-1.311c.198-.53.784-.79 1.315-.593 4.798 1.793 7.434 2.773 12.351 3.713 1.275.245 2.541.364 3.871.364.943 0 1.893-.071 2.827-.198a5.023 5.023 0 001.417-.411c-.396-.363-1.385-1.027-3.412-1.896a1.01 1.01 0 01-.531-1.335 1.014 1.014 0 011.338-.53c4.561 1.952 4.98 3.2 4.79 4.156-.301 1.494-2.612 1.936-3.309 2.031-1.037.142-2.13.213-3.135.221h-.016zm20.886-3.232c-.364 0-.729-.007-1.093-.023a24.515 24.515 0 01-10.229-2.781 1.017 1.017 0 11.95-1.801 22.477 22.477 0 009.374 2.543 22.24 22.24 0 006.801-.75c-.285-.87-.744-1.833-1.369-2.457-.254-.253-.626-.632-1.236-.893-.182-.079-.316-.118-.625-.221l-.253-.08a77.434 77.434 0 01-1.711-.56 1.02 1.02 0 11.665-1.928c.381.135.958.324 1.663.553l.253.08c.42.133.594.189.84.3.95.418 1.559 1.026 1.852 1.319 1.473 1.477 2.027 3.729 2.162 4.385a1.018 1.018 0 01-.689 1.177 24.255 24.255 0 01-7.347 1.138h-.008zm3.008-19.474a1.03 1.03 0 01-1.021-.972 1.029 1.029 0 01.974-1.067 25.481 25.481 0 002.692-.253 1.02 1.02 0 011.156.854 1.017 1.017 0 01-.855 1.153 27.46 27.46 0 01-2.898.269h-.048v.016z"/><path d="M154.859 80.175a1.017 1.017 0 01-.063-2.03c2.621-.166 3.935-1.02 4.046-1.739.103-.663-.808-1.777-3.049-2.67a1.017 1.017 0 01-.57-1.32 1.02 1.02 0 011.323-.568c2.992 1.185 4.608 3.002 4.307 4.874-.309 1.944-2.526 3.232-5.93 3.445h-.064v.008zm-33.831-6.415a1.015 1.015 0 01-.222-2.007c8.512-1.92 17.102-2.465 25.542-1.62a77.34 77.34 0 017.102 1.043c.554.11.91.64.807 1.193-.11.553-.641.909-1.195.806a78.456 78.456 0 00-6.92-1.02c-8.218-.82-16.595-.291-24.884 1.58a1.12 1.12 0 01-.222.025h-.008zm-12.153 5.19c-.332 0-.657-.166-.855-.458a1.016 1.016 0 01.293-1.406 38.705 38.705 0 014.426-2.497 37.873 37.873 0 014.505-1.833c.356-.118.665-.221.879-.284a1.024 1.024 0 011.274.663 1.017 1.017 0 01-.665 1.272c-.206.064-.491.158-.831.269a37.145 37.145 0 00-4.268 1.738 37.89 37.89 0 00-4.196 2.37 1.025 1.025 0 01-.554.166h-.008z"/><path d="M124.441 73.989a.56.56 0 01-.372-.98c.11-.095.277-.237.482-.403a11.107 11.107 0 012.55-1.493c.705-.3 1.457-.53 2.217-.68a.554.554 0 01.657.443.555.555 0 01-.443.656 10.07 10.07 0 00-1.996.608c-.823.348-1.599.806-2.296 1.343-.182.142-.332.277-.435.364a.55.55 0 01-.372.142h.008zm5.304-.166a.578.578 0 01-.475-.261.56.56 0 01.166-.774 22.705 22.705 0 013.049-1.635 23.196 23.196 0 012.09-.814.57.57 0 01.712.355.569.569 0 01-.356.711 21.05 21.05 0 00-1.987.774 22.61 22.61 0 00-2.423 1.257c-.206.118-.372.229-.483.3a.531.531 0 01-.301.087h.008zm6.706.007a.556.556 0 01-.451-.228.556.556 0 01.119-.783c.119-.087.285-.213.499-.355a16.085 16.085 0 014.695-2.157c.3-.087.609.095.688.395.08.3-.095.608-.395.687a14.27 14.27 0 00-1.996.704 14.534 14.534 0 00-2.826 1.62.58.58 0 01-.333.11v.008zm12.961 21.633h-.079l-4.521-.624a.55.55 0 01-.475-.632.555.555 0 01.633-.475l4.521.625a.55.55 0 01.475.632.561.561 0 01-.554.482v-.008zm29.073-.925a.812.812 0 01-.452-.134 15.176 15.176 0 01-3.586-3.144c-1.362-1.636-2.637-3.177-2.47-5.2.174-2.061 1.749-3.373 3.42-4.763a15.72 15.72 0 014.6-2.663.842.842 0 011.085.49.839.839 0 01-.491 1.083 14.196 14.196 0 00-4.109 2.378c-1.513 1.256-2.708 2.251-2.827 3.618-.111 1.335.855 2.505 2.082 3.982a13.61 13.61 0 003.199 2.805.84.84 0 01-.451 1.548zm12.414-16.142c-.459 0-.871-.308-.99-.774-.198-.79-.19-1.541.032-2.236 1.077-3.413 6.571-4.006 10.578-4.432 4.148-.45 8.416-.317 12.675.387a1.018 1.018 0 11-.332 2.006 44.698 44.698 0 00-12.122-.371c-3.056.332-8.178.885-8.851 3.026-.103.332-.103.711 0 1.13a1.018 1.018 0 01-.99 1.264z"/><path d="M200.59 91.772c-.214 0-.436-.072-.618-.206a59.874 59.874 0 01-4.513-3.784 42.03 42.03 0 01-2.525-2.497 40.553 40.553 0 01-2.708-3.247 1.249 1.249 0 01-.103-.174 7.087 7.087 0 00-.158-.308c-.84-1.572-1.592-3.2-.855-4.242.213-.3.72-.775 1.749-.625.555.08.942.6.863 1.154a1.016 1.016 0 01-.815.853c.095.34.34.924.863 1.912.063.11.111.213.15.284a38.349 38.349 0 004.933 5.396 59.672 59.672 0 004.362 3.659c.452.34.531.98.19 1.422-.198.26-.506.403-.807.403h-.008z"/><path d="M251.364 101.655c-.127 0-.253-.023-.38-.071a21.769 21.769 0 00-5.875-1.461c-1.433-.143-2.763-.087-4.6 0-.617.031-1.29.055-2.034.086l-2.653.095c-2.169.079-2.747.103-3.745.079a50.038 50.038 0 01-6.563-.545c-6.841-1.027-14.315-3.5-14.632-3.61a97.787 97.787 0 01-10.047-4.046 1.02 1.02 0 01-.491-1.35 1.023 1.023 0 011.354-.49 93.443 93.443 0 009.826 3.958c.071.023 7.616 2.52 14.283 3.523 2.058.309 4.18.482 6.294.522.942.016 1.457 0 3.642-.08l2.66-.094c.737-.024 1.402-.055 2.019-.087 1.924-.087 3.318-.15 4.893.008 2.146.213 4.307.75 6.429 1.596a1.015 1.015 0 01-.38 1.959v.008zm30.719-3.99c-.15 0-.292-.031-.435-.094a19.766 19.766 0 00-1.987-.822c-2.233-.798-4.204-1.067-6.865-1.264-5.415-.403-11.108-.324-13.245-.15-.325.023-1.109.095-2.154.055a18.441 18.441 0 01-2.708-.3c-.071-.016-.142-.032-.206-.063a17.311 17.311 0 01-1.543-.743c-1.188-.648-2.011-1.304-2.368-1.588l-.103-.08a166.291 166.291 0 00-11.583-8.113c-3.634-2.323-6.508-4.156-10.482-6.06a72.954 72.954 0 00-13.183-4.796 1.016 1.016 0 11.515-1.967 74.588 74.588 0 0113.554 4.93c4.086 1.96 7.007 3.816 10.697 6.178a165.9 165.9 0 0111.725 8.217l.127.095c.317.245 1.045.83 2.082 1.398.404.222.824.427 1.251.609a15.935 15.935 0 004.181.197c2.66-.221 8.59-.221 13.594.15 2.834.214 4.948.498 7.403 1.375.744.26 1.472.569 2.177.9.507.246.72.846.483 1.36a1.018 1.018 0 01-.919.576h-.008zm-11.717 23.086a1.01 1.01 0 01-.713-.292l-8.804-8.564a90.833 90.833 0 01-4.473-5.183 96.925 96.925 0 01-3.08-4.077 1.018 1.018 0 01.237-1.414 1.023 1.023 0 011.418.237 92.694 92.694 0 003.008 3.99 90.487 90.487 0 004.339 5.032l8.764 8.533c.404.395.412 1.035.016 1.438a1.016 1.016 0 01-.728.308l.016-.008z"/><path d="M270.366 120.751c-.42 0-.808-.261-.958-.671-1.077-2.995-1.639-6.076-1.671-9.141-.032-2.576-.047-4.606 1.109-6.827 1.314-2.512 3.341-3.752 5.906-5.317l.222-.134a27.73 27.73 0 016.84-2.987 1.015 1.015 0 11.562 1.952 25.395 25.395 0 00-6.334 2.765l-.221.135c-2.391 1.461-4.117 2.512-5.162 4.527-.927 1.769-.903 3.397-.879 5.862.031 2.836.554 5.688 1.552 8.477.19.53-.088 1.114-.618 1.304-.111.039-.23.063-.34.063l-.008-.008zm-58.383-31.136a9.23 9.23 0 01-2.193-.269c-2.771-.695-4.466-2.441-5.234-3.429a1.017 1.017 0 01.175-1.43 1.022 1.022 0 011.433.174c.609.774 1.947 2.157 4.125 2.702 2.177.545 3.887-.079 5.011-.49.167-.063.301-.11.412-.166-.467-.308-1.33-.71-2.573-1.2a26.364 26.364 0 00-6.659-1.66 1.015 1.015 0 01-.894-1.13c.063-.56.57-.963 1.132-.892 2.526.3 4.948.9 7.181 1.793 2.399.956 4.362 1.873 4.172 3.398-.11.932-1.108 1.414-2.074 1.761-.863.316-2.264.83-4.022.83l.008.008z"/><path d="M199.885 88.185c-.435 0-.839-.277-.974-.712a1.012 1.012 0 01.665-1.272 13.4 13.4 0 005.131-2.946 13.193 13.193 0 002.042-2.402 1.018 1.018 0 011.703 1.114 15.202 15.202 0 01-2.352 2.773 15.458 15.458 0 01-5.906 3.397 1.049 1.049 0 01-.309.048zm-2.225-10.864a1.974 1.974 0 01-1.837-2.686 1.981 1.981 0 012.558-1.122 1.974 1.974 0 011.124 2.552 1.962 1.962 0 01-1.837 1.256h-.008zm-.063-1.99a.054.054 0 00.04.078c.023.008.071-.008.079-.04l-.119-.047v.008zm0 0l.119.047s0-.071-.04-.08c-.032-.007-.071.009-.079.04v-.008zm22.382 27.786a7.66 7.66 0 01-1.551-.174 21.433 21.433 0 01-2.985-.877 22.462 22.462 0 01-3.848-1.856c-4.434-2.679-6.738-4.678-10.562-7.98a1.015 1.015 0 01-.103-1.438 1.02 1.02 0 011.441-.103c3.872 3.342 6.002 5.191 10.285 7.782a20.67 20.67 0 003.499 1.691c.879.324 1.798.593 2.716.798.57.126 1.132.142 1.473.103-.238-.482-.942-1.446-2.534-2.963a1.019 1.019 0 01-.032-1.438 1.025 1.025 0 011.441-.032c3.587 3.421 3.547 4.733 3.033 5.563-.459.734-1.402.932-2.257.932l-.016-.008zm23.475 4.661h-.047a24.353 24.353 0 01-8.305-1.888 24.456 24.456 0 01-8.614-6.162 1.02 1.02 0 011.52-1.36 22.509 22.509 0 007.893 5.65 22.104 22.104 0 006.635 1.659c.032-.782-.016-1.881-.427-2.773-.151-.324-.373-.806-.84-1.272a6.121 6.121 0 00-.506-.419l-.214-.166a58.667 58.667 0 01-1.402-1.122 1.015 1.015 0 01-.142-1.43 1.02 1.02 0 011.433-.142c.309.253.784.64 1.37 1.09l.206.166c.348.269.49.387.68.569.745.727 1.101 1.509 1.275 1.88.863 1.889.602 4.196.499 4.859a1.02 1.02 0 01-1.006.861h-.008zm5.353-17.903c-.072 0-.143 0-.214-.023a28.208 28.208 0 01-2.811-.759 1.013 1.013 0 01-.657-1.28c.174-.537.744-.83 1.283-.655.95.3 1.805.537 2.612.703.555.118.903.655.784 1.209a1.014 1.014 0 01-.997.805z"/><path d="M251.657 90.35c-.934 0-1.987-.166-3.143-.514a1.009 1.009 0 01-.681-1.264 1.011 1.011 0 011.267-.68c2.517.751 4.045.411 4.402-.22.332-.585-.135-1.952-1.924-3.556a1.02 1.02 0 01-.079-1.438 1.026 1.026 0 011.441-.079c2.391 2.149 3.269 4.416 2.335 6.068-.625 1.106-1.908 1.683-3.618 1.683zm-1.916-7.585c-.182 0-.364-.048-.531-.15a76.633 76.633 0 00-6.128-3.358c-7.418-3.627-15.446-6.044-23.879-7.174a1.017 1.017 0 11.278-2.015c8.645 1.162 16.887 3.643 24.504 7.364a74.854 74.854 0 016.294 3.452 1.019 1.019 0 01-.53 1.888l-.008-.007zm-43.609-10.034c-.467 0-.887-.316-.99-.79a1.02 1.02 0 01.768-1.217 39.974 39.974 0 015.02-.806c1.607-.15 3.238-.205 4.861-.15.38.008.697.024.926.04.563.031.99.505.966 1.066a1.021 1.021 0 01-1.068.964c-.214-.008-.515-.023-.879-.04-1.536-.047-3.088 0-4.608.15-1.6.151-3.199.404-4.759.76-.079.015-.15.023-.229.023h-.008z"/><path d="M222.291 73.466a.56.56 0 01-.198-1.082 11.1 11.1 0 01.594-.206c.934-.3 1.916-.474 2.914-.514.768-.031 1.552.008 2.32.135.308.047.514.34.467.64a.569.569 0 01-.642.466 10.233 10.233 0 00-4.703.347c-.221.072-.403.143-.53.19a.589.589 0 01-.198.04l-.024-.016zm5.036 1.691a.56.56 0 01-.119-1.106 23.584 23.584 0 013.436-.474 23.656 23.656 0 012.241-.04.563.563 0 01.546.577c-.008.308-.285.53-.578.545a24.218 24.218 0 00-2.138.031c-.918.056-1.836.174-2.707.34-.23.048-.428.087-.555.11a.605.605 0 01-.118.017h-.008zm6.278 2.338a.558.558 0 01-.538-.403.562.562 0 01.38-.695 15 15 0 013.468-.577 15.49 15.49 0 012.272.04c.309.023.538.3.507.608a.564.564 0 01-.61.506 14.512 14.512 0 00-2.114-.032c-.91.048-1.813.182-2.668.395-.23.055-.42.11-.546.142a.554.554 0 01-.159.024l.008-.008zm4.592 24.784a.564.564 0 01-.269-.071l-4.014-2.157a.568.568 0 01-.229-.758.571.571 0 01.76-.23l4.014 2.158c.269.15.372.489.229.758a.553.553 0 01-.491.292v.008zm27.68 9.268a.836.836 0 01-.673-.332 15.19 15.19 0 01-2.265-4.195c-.704-1.999-1.362-3.895-.499-5.728.887-1.873 2.819-2.56 4.87-3.279a15.917 15.917 0 015.241-.9c.467 0 .839.37.839.837a.845.845 0 01-.839.845c-1.607 0-3.183.277-4.679.806-1.861.656-3.325 1.169-3.911 2.41-.57 1.216-.072 2.646.562 4.464a13.589 13.589 0 002.019 3.737.84.84 0 01-.665 1.351v-.016z"/></g><defs><clipPath id="clip0_1754_12158"><path fill="#fff" d="M0 0h376.513v120.759H0z"/></clipPath></defs></svg>